<svg width="172" height="25" viewBox="0 0 172 25" fill="none" xmlns="http://www.w3.org/2000/svg">
<path d="M19.2266 10.3398C19.2266 11.457 19.0508 12.4805 18.6992 13.4102C18.3477 14.332 17.8516 15.0508 17.2109 15.5664C16.5781 16.082 15.8438 16.3398 15.0078 16.3398C14.3906 16.3398 13.8555 16.1758 13.4023 15.8477C12.9492 15.5195 12.6445 15.0742 12.4883 14.5117H12.3477C11.9648 15.1211 11.4922 15.5781 10.9297 15.8828C10.3672 16.1875 9.73438 16.3398 9.03125 16.3398C7.75781 16.3398 6.75391 15.9297 6.01953 15.1094C5.29297 14.2891 4.92969 13.1797 4.92969 11.7812C4.92969 10.1719 5.41406 8.86719 6.38281 7.86719C7.35156 6.85938 8.65234 6.35547 10.2852 6.35547C10.8789 6.35547 11.5352 6.41016 12.2539 6.51953C12.9805 6.62109 13.625 6.76562 14.1875 6.95312L13.9297 12.4023V12.6836C13.9297 13.9336 14.3359 14.5586 15.1484 14.5586C15.7656 14.5586 16.2539 14.1602 16.6133 13.3633C16.9805 12.5664 17.1641 11.5508 17.1641 10.3164C17.1641 8.98047 16.8906 7.80859 16.3438 6.80078C15.7969 5.78516 15.0195 5.00391 14.0117 4.45703C13.0039 3.91016 11.8477 3.63672 10.543 3.63672C8.87891 3.63672 7.42969 3.98047 6.19531 4.66797C4.96875 5.35547 4.03125 6.33984 3.38281 7.62109C2.73438 8.89453 2.41016 10.375 2.41016 12.0625C2.41016 14.3281 3.01562 16.0703 4.22656 17.2891C5.4375 18.5078 7.17578 19.1172 9.44141 19.1172C11.168 19.1172 12.9688 18.7656 14.8438 18.0625V19.9844C13.2031 20.6562 11.418 20.9922 9.48828 20.9922C6.59766 20.9922 4.34375 20.2148 2.72656 18.6602C1.10938 17.0977 0.300781 14.9219 0.300781 12.1328C0.300781 10.0938 0.738281 8.28125 1.61328 6.69531C2.48828 5.10156 3.69922 3.88281 5.24609 3.03906C6.80078 2.19531 8.55859 1.77344 10.5195 1.77344C12.2148 1.77344 13.7227 2.125 15.043 2.82812C16.3711 3.53125 17.3984 4.53516 18.125 5.83984C18.8594 7.13672 19.2266 8.63672 19.2266 10.3398ZM7.17969 11.8281C7.17969 13.6484 7.89453 14.5586 9.32422 14.5586C10.832 14.5586 11.6562 13.4141 11.7969 11.125L11.9375 8.32422C11.4453 8.19141 10.918 8.125 10.3555 8.125C9.35547 8.125 8.57422 8.45703 8.01172 9.12109C7.45703 9.78516 7.17969 10.6875 7.17969 11.8281ZM26.9023 19.2344C25.2852 19.2344 24.0234 18.6484 23.1172 17.4766C22.2109 16.3047 21.7578 14.6602 21.7578 12.543C21.7578 10.418 22.2148 8.76562 23.1289 7.58594C24.0508 6.39844 25.3242 5.80469 26.9492 5.80469C28.6523 5.80469 29.9492 6.43359 30.8398 7.69141H30.9805C30.8477 6.76172 30.7812 6.02734 30.7812 5.48828V0.765625H33.5469V19H31.3906L30.9102 17.3008H30.7812C29.8984 18.5898 28.6055 19.2344 26.9023 19.2344ZM27.6406 17.0078C28.7734 17.0078 29.5977 16.6914 30.1133 16.0586C30.6289 15.418 30.8945 14.3828 30.9102 12.9531V12.5664C30.9102 10.9336 30.6445 9.77344 30.1133 9.08594C29.582 8.39844 28.75 8.05469 27.6172 8.05469C26.6484 8.05469 25.9023 8.44922 25.3789 9.23828C24.8555 10.0195 24.5938 11.1367 24.5938 12.5898C24.5938 14.0273 24.8477 15.125 25.3555 15.8828C25.8633 16.6328 26.625 17.0078 27.6406 17.0078ZM45.5938 19L45.043 17.1953H44.9492C44.3242 17.9844 43.6953 18.5234 43.0625 18.8125C42.4297 19.0938 41.6172 19.2344 40.625 19.2344C39.3516 19.2344 38.3555 18.8906 37.6367 18.2031C36.9258 17.5156 36.5703 16.543 36.5703 15.2852C36.5703 13.9492 37.0664 12.9414 38.0586 12.2617C39.0508 11.582 40.5625 11.2109 42.5938 11.1484L44.832 11.0781V10.3867C44.832 9.55859 44.6367 8.94141 44.2461 8.53516C43.8633 8.12109 43.2656 7.91406 42.4531 7.91406C41.7891 7.91406 41.1523 8.01172 40.543 8.20703C39.9336 8.40234 39.3477 8.63281 38.7852 8.89844L37.8945 6.92969C38.5977 6.5625 39.3672 6.28516 40.2031 6.09766C41.0391 5.90234 41.8281 5.80469 42.5703 5.80469C44.2188 5.80469 45.4609 6.16406 46.2969 6.88281C47.1406 7.60156 47.5625 8.73047 47.5625 10.2695V19H45.5938ZM41.4922 17.125C42.4922 17.125 43.293 16.8477 43.8945 16.293C44.5039 15.7305 44.8086 14.9453 44.8086 13.9375V12.8125L43.1445 12.8828C41.8477 12.9297 40.9023 13.1484 40.3086 13.5391C39.7227 13.9219 39.4297 14.5117 39.4297 15.3086C39.4297 15.8867 39.6016 16.3359 39.9453 16.6562C40.2891 16.9688 40.8047 17.125 41.4922 17.125ZM57.9805 5.80469C58.5352 5.80469 58.9922 5.84375 59.3516 5.92188L59.082 8.48828C58.6914 8.39453 58.2852 8.34766 57.8633 8.34766C56.7617 8.34766 55.8672 8.70703 55.1797 9.42578C54.5 10.1445 54.1602 11.0781 54.1602 12.2266V19H51.4062V6.03906H53.5625L53.9258 8.32422H54.0664C54.4961 7.55078 55.0547 6.9375 55.7422 6.48438C56.4375 6.03125 57.1836 5.80469 57.9805 5.80469ZM72.3945 19L70.7188 12.9531C70.5156 12.3125 70.1484 10.8242 69.6172 8.48828H69.5117C69.0586 10.5977 68.6992 12.0938 68.4336 12.9766L66.7109 19H63.6641L60.0312 6.03906H62.8438L64.4961 12.4258C64.8711 14.0039 65.1367 15.3555 65.293 16.4805H65.3633C65.4414 15.9102 65.5586 15.2578 65.7148 14.5234C65.8789 13.7812 66.0195 13.2266 66.1367 12.8594L68.1055 6.03906H71.1289L73.0391 12.8594C73.1562 13.2422 73.3008 13.8281 73.4727 14.6172C73.6523 15.4062 73.7578 16.0195 73.7891 16.457H73.8828C74 15.4961 74.2734 14.1523 74.7031 12.4258L76.3789 6.03906H79.1445L75.4883 19H72.3945ZM84.1367 19H81.3828V6.03906H84.1367V19ZM81.2188 2.60547C81.2188 2.11328 81.3516 1.73438 81.6172 1.46875C81.8906 1.20312 82.2773 1.07031 82.7773 1.07031C83.2617 1.07031 83.6367 1.20312 83.9023 1.46875C84.1758 1.73438 84.3125 2.11328 84.3125 2.60547C84.3125 3.07422 84.1758 3.44531 83.9023 3.71875C83.6367 3.98438 83.2617 4.11719 82.7773 4.11719C82.2773 4.11719 81.8906 3.98438 81.6172 3.71875C81.3516 3.44531 81.2188 3.07422 81.2188 2.60547ZM99.4883 19H96.7227V11.0312C96.7227 10.0312 96.5195 9.28516 96.1133 8.79297C95.7148 8.30078 95.0781 8.05469 94.2031 8.05469C93.0391 8.05469 92.1875 8.39844 91.6484 9.08594C91.1094 9.77344 90.8398 10.9258 90.8398 12.543V19H88.0859V6.03906H90.2422L90.6289 7.73828H90.7695C91.1602 7.12109 91.7148 6.64453 92.4336 6.30859C93.1523 5.97266 93.9492 5.80469 94.8242 5.80469C97.9336 5.80469 99.4883 7.38672 99.4883 10.5508V19ZM107.691 19.2344C106.074 19.2344 104.812 18.6484 103.906 17.4766C103 16.3047 102.547 14.6602 102.547 12.543C102.547 10.418 103.004 8.76562 103.918 7.58594C104.84 6.39844 106.113 5.80469 107.738 5.80469C109.441 5.80469 110.738 6.43359 111.629 7.69141H111.77C111.637 6.76172 111.57 6.02734 111.57 5.48828V0.765625H114.336V19H112.18L111.699 17.3008H111.57C110.688 18.5898 109.395 19.2344 107.691 19.2344ZM108.43 17.0078C109.562 17.0078 110.387 16.6914 110.902 16.0586C111.418 15.418 111.684 14.3828 111.699 12.9531V12.5664C111.699 10.9336 111.434 9.77344 110.902 9.08594C110.371 8.39844 109.539 8.05469 108.406 8.05469C107.438 8.05469 106.691 8.44922 106.168 9.23828C105.645 10.0195 105.383 11.1367 105.383 12.5898C105.383 14.0273 105.637 15.125 106.145 15.8828C106.652 16.6328 107.414 17.0078 108.43 17.0078ZM121.027 19H118.273V6.03906H121.027V19ZM118.109 2.60547C118.109 2.11328 118.242 1.73438 118.508 1.46875C118.781 1.20312 119.168 1.07031 119.668 1.07031C120.152 1.07031 120.527 1.20312 120.793 1.46875C121.066 1.73438 121.203 2.11328 121.203 2.60547C121.203 3.07422 121.066 3.44531 120.793 3.71875C120.527 3.98438 120.152 4.11719 119.668 4.11719C119.168 4.11719 118.781 3.98438 118.508 3.71875C118.242 3.44531 118.109 3.07422 118.109 2.60547ZM135.922 6.03906V7.55078L133.707 7.96094C133.91 8.23438 134.078 8.57031 134.211 8.96875C134.344 9.36719 134.41 9.78906 134.41 10.2344C134.41 11.5703 133.949 12.6211 133.027 13.3867C132.105 14.1523 130.836 14.5352 129.219 14.5352C128.805 14.5352 128.43 14.5039 128.094 14.4414C127.5 14.8086 127.203 15.2383 127.203 15.7305C127.203 16.0273 127.34 16.25 127.613 16.3984C127.895 16.5469 128.406 16.6211 129.148 16.6211H131.41C132.84 16.6211 133.926 16.9258 134.668 17.5352C135.41 18.1445 135.781 19.0234 135.781 20.1719C135.781 21.6406 135.176 22.7734 133.965 23.5703C132.754 24.3672 131.004 24.7656 128.715 24.7656C126.949 24.7656 125.602 24.4531 124.672 23.8281C123.742 23.2031 123.277 22.3125 123.277 21.1562C123.277 20.3594 123.527 19.6875 124.027 19.1406C124.535 18.6016 125.242 18.2266 126.148 18.0156C125.781 17.8594 125.477 17.6094 125.234 17.2656C125 16.9141 124.883 16.5469 124.883 16.1641C124.883 15.6797 125.02 15.2695 125.293 14.9336C125.566 14.5977 125.973 14.2656 126.512 13.9375C125.84 13.6484 125.293 13.1797 124.871 12.5312C124.457 11.875 124.25 11.1094 124.25 10.2344C124.25 8.82812 124.691 7.73828 125.574 6.96484C126.465 6.19141 127.73 5.80469 129.371 5.80469C129.738 5.80469 130.121 5.83203 130.52 5.88672C130.926 5.93359 131.23 5.98438 131.434 6.03906H135.922ZM125.738 21.0156C125.738 21.6094 126.004 22.0664 126.535 22.3867C127.074 22.707 127.828 22.8672 128.797 22.8672C130.297 22.8672 131.414 22.6523 132.148 22.2227C132.883 21.793 133.25 21.2227 133.25 20.5117C133.25 19.9492 133.047 19.5469 132.641 19.3047C132.242 19.0703 131.496 18.9531 130.402 18.9531H128.316C127.527 18.9531 126.898 19.1367 126.43 19.5039C125.969 19.8789 125.738 20.3828 125.738 21.0156ZM126.922 10.2344C126.922 11.0469 127.129 11.6719 127.543 12.1094C127.965 12.5469 128.566 12.7656 129.348 12.7656C130.941 12.7656 131.738 11.9141 131.738 10.2109C131.738 9.36719 131.539 8.71875 131.141 8.26562C130.75 7.80469 130.152 7.57422 129.348 7.57422C128.551 7.57422 127.945 7.80078 127.531 8.25391C127.125 8.70703 126.922 9.36719 126.922 10.2344ZM141.09 19H138.336V6.03906H141.09V19ZM138.172 2.60547C138.172 2.11328 138.305 1.73438 138.57 1.46875C138.844 1.20312 139.23 1.07031 139.73 1.07031C140.215 1.07031 140.59 1.20312 140.855 1.46875C141.129 1.73438 141.266 2.11328 141.266 2.60547C141.266 3.07422 141.129 3.44531 140.855 3.71875C140.59 3.98438 140.215 4.11719 139.73 4.11719C139.23 4.11719 138.844 3.98438 138.57 3.71875C138.305 3.44531 138.172 3.07422 138.172 2.60547ZM149.867 17.0078C150.539 17.0078 151.211 16.9023 151.883 16.6914V18.7656C151.578 18.8984 151.184 19.0078 150.699 19.0938C150.223 19.1875 149.727 19.2344 149.211 19.2344C146.602 19.2344 145.297 17.8594 145.297 15.1094V8.125H143.527V6.90625L145.426 5.89844L146.363 3.15625H148.062V6.03906H151.754V8.125H148.062V15.0625C148.062 15.7266 148.227 16.2188 148.555 16.5391C148.891 16.8516 149.328 17.0078 149.867 17.0078ZM162.594 19L162.043 17.1953H161.949C161.324 17.9844 160.695 18.5234 160.062 18.8125C159.43 19.0938 158.617 19.2344 157.625 19.2344C156.352 19.2344 155.355 18.8906 154.637 18.2031C153.926 17.5156 153.57 16.543 153.57 15.2852C153.57 13.9492 154.066 12.9414 155.059 12.2617C156.051 11.582 157.562 11.2109 159.594 11.1484L161.832 11.0781V10.3867C161.832 9.55859 161.637 8.94141 161.246 8.53516C160.863 8.12109 160.266 7.91406 159.453 7.91406C158.789 7.91406 158.152 8.01172 157.543 8.20703C156.934 8.40234 156.348 8.63281 155.785 8.89844L154.895 6.92969C155.598 6.5625 156.367 6.28516 157.203 6.09766C158.039 5.90234 158.828 5.80469 159.57 5.80469C161.219 5.80469 162.461 6.16406 163.297 6.88281C164.141 7.60156 164.562 8.73047 164.562 10.2695V19H162.594ZM158.492 17.125C159.492 17.125 160.293 16.8477 160.895 16.293C161.504 15.7305 161.809 14.9453 161.809 13.9375V12.8125L160.145 12.8828C158.848 12.9297 157.902 13.1484 157.309 13.5391C156.723 13.9219 156.43 14.5117 156.43 15.3086C156.43 15.8867 156.602 16.3359 156.945 16.6562C157.289 16.9688 157.805 17.125 158.492 17.125ZM171.16 19H168.406V0.765625H171.16V19Z" fill="#262626"/>
</svg>
